<svg width="133" height="60" viewBox="0 0 133 60" fill="none" xmlns="http://www.w3.org/2000/svg">
    <path d="M7.92049 53.1071H11.5451C13.2735 53.1071 14.6495 52.6675 15.6396 51.7707C16.6297 50.8563 17.1331 49.6606 17.1331 48.078C17.1331 46.5482 16.6465 45.3701 15.6732 44.5436C14.6999 43.6996 13.3239 43.2952 11.5283 43.2952H7.92049V53.1071ZM7.92049 36.9121H10.8068C12.5016 36.9121 13.8441 36.5253 14.8174 35.734C15.7739 34.9603 16.2605 33.8349 16.2605 32.4282C16.2605 30.9863 15.8074 29.9664 14.8845 29.2982C13.9783 28.63 12.552 28.2959 10.6054 28.2959H7.92049V36.9121ZM0 60.0001V21.8074H11.2598C15.5054 21.8074 18.7105 22.6162 20.8752 24.2516C23.0399 25.8869 24.1306 28.2959 24.1306 31.4786C24.1306 33.4305 23.644 35.0834 22.6372 36.4374C21.6471 37.8089 20.1536 38.864 18.1567 39.6201C20.3718 40.1476 22.1002 41.2202 23.3755 42.8731C24.6341 44.5261 25.2717 46.5306 25.2717 48.8869C25.2717 52.5444 23.9628 55.3227 21.3954 57.1866C18.7944 59.0505 14.9684 59.9825 9.88383 59.9825H0V60.0001Z" fill="#2C3280"/>
    <path d="M64.1223 59.9976V21.8049H72.7308V38.4219L84.7626 21.8049H95.133L81.3729 39.9693L96.207 59.9976H85.7023L72.7308 42.4135V59.9976H64.1223Z" fill="#2C3280"/>
    <path d="M104.088 59.9996V29.7901H92.3752L98.4163 21.8069H122.01V29.7901H112.797V59.9996H104.088Z" fill="#2C3280"/>
    <path d="M124.307 60.0001V21.8074H133V60.0001H124.307Z" fill="#2C3280"/>
    <path d="M61.9241 59.9966H53.1478L43.3311 39.177L33.4976 59.9966H24.7213L43.3311 20.6082L61.9241 59.9966Z" fill="#C42127"/>
    <path d="M43.335 12.1155V15.7554C46.5233 15.7554 49.1243 18.4633 49.1243 21.8219H52.5979C52.5644 16.4412 48.4363 12.1155 43.335 12.1155Z" fill="#2C3280"/>
    <path d="M43.3276 9.68777C49.7043 9.68777 54.8895 15.1037 54.8895 21.8032H58.3631C58.3631 13.0991 51.6341 6.04785 43.3276 6.04785C35.0212 6.04785 28.2921 13.0991 28.2921 21.8032H31.7657C31.7657 15.1037 36.9342 9.68777 43.3276 9.68777Z" fill="#C42127"/>
    <path d="M43.3184 0C54.8132 0 64.1265 9.75919 64.1265 21.8043H60.6529C60.6529 11.7638 52.8834 3.62233 43.3016 3.62233L43.3184 0Z" fill="#2C3280"/>
</svg>
    