<svg width="103" height="46" viewBox="0 0 103 46" fill="none" xmlns="http://www.w3.org/2000/svg">
    <path d="M6.13391 40.7154H8.94096C10.2795 40.7154 11.3451 40.3784 12.1119 39.6908C12.8786 38.9898 13.2685 38.0731 13.2685 36.8598C13.2685 35.6869 12.8916 34.7837 12.1379 34.1501C11.3841 33.503 10.3185 33.1929 8.92796 33.1929H6.13391V40.7154ZM6.13391 28.2992H8.36915C9.68171 28.2992 10.7214 28.0027 11.4751 27.396C12.2158 26.8028 12.5927 25.94 12.5927 24.8616C12.5927 23.7561 12.2418 22.9742 11.5271 22.4619C10.8253 21.9496 9.72069 21.6935 8.21321 21.6935H6.13391V28.2992ZM0 46V16.7189H8.72003C12.0079 16.7189 14.4901 17.3391 16.1665 18.5928C17.8429 19.8466 18.6876 21.6935 18.6876 24.1336C18.6876 25.63 18.3108 26.8972 17.531 27.9353C16.7643 28.9868 15.6077 29.7957 14.0612 30.3753C15.7766 30.7798 17.1152 31.6021 18.1028 32.8694C19.0775 34.1366 19.5713 35.6734 19.5713 37.4799C19.5713 40.284 18.5577 42.414 16.5694 43.843C14.555 45.272 11.5921 45.9865 7.6544 45.9865H0V46Z" fill="#2C3280"/>
    <path d="M49.6586 45.9981V16.717H56.3254V29.4567L65.6432 16.717H73.6745L63.0181 30.6431L74.5062 45.9981H66.3709L56.3254 32.517V45.9981H49.6586Z" fill="#2C3280"/>
    <path d="M80.6097 45.9998V22.8391H71.5388L76.2172 16.7187H94.489V22.8391H87.3544V45.9998H80.6097Z" fill="#2C3280"/>
    <path d="M96.2682 46V16.7189H103V46H96.2682Z" fill="#2C3280"/>
    <path d="M47.9563 45.9973H41.1596L33.5572 30.0356L25.9418 45.9973H19.1451L33.5572 15.7995L47.9563 45.9973Z" fill="#C42127"/>
    <path d="M33.5602 9.28857V12.0792C36.0294 12.0792 38.0437 14.1553 38.0437 16.7302H40.7338C40.7078 12.6049 37.5109 9.28857 33.5602 9.28857Z" fill="#2C3280"/>
    <path d="M33.5544 7.42723C38.4928 7.42723 42.5084 11.5794 42.5084 16.7157H45.1985C45.1985 10.0426 39.9872 4.63663 33.5544 4.63663C27.1216 4.63663 21.9104 10.0426 21.9104 16.7157H24.6005C24.6005 11.5794 28.6031 7.42723 33.5544 7.42723Z" fill="#C42127"/>
    <path d="M33.5474 0C42.4493 0 49.6619 7.48204 49.6619 16.7166H46.9718C46.9718 9.01889 40.9548 2.77712 33.5344 2.77712L33.5474 0Z" fill="#2C3280"/>
</svg>
    