<svg width="185" height="177" viewBox="0 0 185 177" fill="none" xmlns="http://www.w3.org/2000/svg">
    <path d="M92.4755 74.6381C82.3032 74.6381 73.9804 83.0349 73.9804 93.2976C73.9804 103.56 82.3032 111.957 92.4755 111.957C102.648 111.957 110.971 103.56 110.971 93.2976C110.971 83.0349 102.648 74.6381 92.4755 74.6381ZM147.961 93.2976C147.961 62.4161 123.085 37.319 92.4755 37.319C61.8661 37.319 36.9902 62.4161 36.9902 93.2976C36.9902 114.01 48.1797 132.016 64.7329 141.719L73.9804 125.485C62.9758 118.954 55.4853 107.106 55.4853 93.2976C55.4853 72.6788 72.0384 55.9785 92.4755 55.9785C112.913 55.9785 129.466 72.6788 129.466 93.2976C129.466 107.106 121.975 118.954 110.971 125.485L120.218 141.719C136.771 132.016 147.961 114.01 147.961 93.2976ZM92.4755 0C41.429 0 0 41.7973 0 93.2976C0 127.818 18.5876 157.86 46.1453 174L55.3928 157.86C33.3837 144.891 18.4951 120.914 18.4951 93.2976C18.4951 52.0601 51.6013 18.6595 92.4755 18.6595C133.35 18.6595 166.456 52.0601 166.456 93.2976C166.456 120.914 151.567 144.891 129.466 157.86L138.713 174C166.363 157.86 184.951 127.818 184.951 93.2976C184.951 41.7973 143.522 0 92.4755 0Z" fill="#C42127" />
    <path d="M82.7412 130.154H100.993L121.678 177H63.2727L82.7412 130.154Z" fill="#2C3280" />
    <circle cx="92.4755" cy="93.6923" r="19.4685" fill="#2C3280" />
</svg>