<svg width="39" height="39" viewBox="0 0 39 39" fill="none" xmlns="http://www.w3.org/2000/svg">
<circle cx="19.5" cy="19.5" r="19.5" fill="#2C327F"/>
<path d="M19.5312 22.4375H28.1741L26.4809 24.2181L27.4062 25.1875L30.6875 21.75L27.4062 18.3125L26.4809 19.2819L28.1741 21.0625H19.5312V22.4375Z" fill="white"/>
<path d="M25.4375 17.625V14.875C25.438 14.7845 25.4214 14.6948 25.3888 14.6111C25.3561 14.5273 25.308 14.4511 25.2472 14.3869L20.6534 9.57439C20.5921 9.51067 20.5194 9.46026 20.4394 9.42604C20.3595 9.39183 20.2739 9.37449 20.1875 9.37501H13.625C13.2769 9.37501 12.9431 9.51988 12.6969 9.77774C12.4508 10.0356 12.3125 10.3853 12.3125 10.75V27.25C12.3125 27.6147 12.4508 27.9644 12.6969 28.2223C12.9431 28.4801 13.2769 28.625 13.625 28.625H24.125C24.4731 28.625 24.8069 28.4801 25.0531 28.2223C25.2992 27.9644 25.4375 27.6147 25.4375 27.25V25.875H24.125V27.25H13.625V10.75H18.875V14.875C18.875 15.2397 19.0133 15.5894 19.2594 15.8473C19.5056 16.1051 19.8394 16.25 20.1875 16.25H24.125V17.625H25.4375ZM20.1875 14.875V11.0319L23.8559 14.875H20.1875Z" fill="white"/>
</svg>
