<svg width="39" height="39" viewBox="0 0 39 39" fill="none" xmlns="http://www.w3.org/2000/svg">
<circle cx="19.5" cy="19.5" r="19.5" fill="#2C327F"/>
<path d="M19.25 27H14V9.00001H20V13.5C20.0012 13.8975 20.1596 14.2783 20.4406 14.5594C20.7217 14.8404 21.1025 14.9988 21.5 15H26V19.5H27.5V13.5C27.5026 13.4014 27.4839 13.3035 27.4451 13.2128C27.4062 13.1222 27.3482 13.0411 27.275 12.975L22.025 7.72501C21.959 7.65177 21.8778 7.59372 21.7872 7.55488C21.6966 7.51603 21.5986 7.49731 21.5 7.50001H14C13.6025 7.5012 13.2217 7.65961 12.9407 7.94066C12.6596 8.22171 12.5012 8.60255 12.5 9.00001V27C12.5012 27.3975 12.6596 27.7783 12.9407 28.0594C13.2217 28.3404 13.6025 28.4988 14 28.5H19.25V27ZM21.5 9.30001L25.7 13.5H21.5V9.30001Z" fill="white"/>
<path d="M25.5 26.4688C25.4166 26.4688 25.335 26.4935 25.2656 26.5398C25.1962 26.5862 25.1422 26.6521 25.1102 26.7292C25.0783 26.8063 25.07 26.8911 25.0862 26.9729C25.1025 27.0548 25.1427 27.1299 25.2017 27.1889C25.2607 27.2479 25.3359 27.2881 25.4177 27.3044C25.4995 27.3207 25.5844 27.3123 25.6614 27.2804C25.7385 27.2485 25.8044 27.1944 25.8508 27.125C25.8971 27.0556 25.9219 26.9741 25.9219 26.8906C25.9219 26.7787 25.8774 26.6714 25.7983 26.5923C25.7192 26.5132 25.6119 26.4688 25.5 26.4688Z" fill="white"/>
<path d="M25.2188 23.375H25.7812V25.9062H25.2188V23.375Z" fill="white"/>
<path d="M29.1561 28.4375H21.8436C21.7953 28.4375 21.7479 28.425 21.7058 28.4014C21.6637 28.3777 21.6284 28.3435 21.6033 28.3022C21.5783 28.2609 21.5643 28.2139 21.5627 28.1656C21.561 28.1174 21.5719 28.0695 21.5942 28.0266L25.2504 20.9954C25.2742 20.9497 25.31 20.9115 25.354 20.8848C25.398 20.8581 25.4484 20.844 25.4999 20.844C25.5513 20.844 25.6018 20.8581 25.6458 20.8848C25.6898 20.9115 25.7256 20.9497 25.7494 20.9954L29.4056 28.0266C29.4279 28.0695 29.4387 28.1174 29.4371 28.1656C29.4355 28.2139 29.4215 28.2609 29.3964 28.3022C29.3714 28.3435 29.3361 28.3777 29.294 28.4014C29.2519 28.425 29.2044 28.4375 29.1561 28.4375ZM22.3077 27.875H28.6921L28.6924 27.8742L25.5005 21.7353H25.4993L22.3071 27.8742L22.3077 27.875Z" fill="white"/>
</svg>
