<svg width="39" height="39" viewBox="0 0 39 39" fill="none" xmlns="http://www.w3.org/2000/svg">
<circle cx="19.5" cy="19.5" r="19.5" fill="#2C327F"/>
<path d="M24.5 26.385L22.5575 24.4425L21.5 25.5L24.5 28.5L30.5 22.5L29.4425 21.4425L24.5 26.385Z" fill="white"/>
<path d="M19.25 27H14V9.00001H20V13.5C20.0012 13.8975 20.1596 14.2783 20.4406 14.5594C20.7217 14.8404 21.1025 14.9988 21.5 15H26V19.5H27.5V13.5C27.5026 13.4014 27.4839 13.3035 27.4451 13.2128C27.4062 13.1222 27.3482 13.0411 27.275 12.975L22.025 7.72501C21.959 7.65177 21.8778 7.59372 21.7872 7.55488C21.6966 7.51603 21.5986 7.49731 21.5 7.50001H14C13.6025 7.5012 13.2217 7.65961 12.9407 7.94066C12.6596 8.22171 12.5012 8.60255 12.5 9.00001V27C12.5012 27.3975 12.6596 27.7783 12.9407 28.0594C13.2217 28.3404 13.6025 28.4988 14 28.5H19.25V27ZM21.5 9.30001L25.7 13.5H21.5V9.30001Z" fill="white"/>
</svg>
