<svg
        width="28"
        height="28"
        viewBox="0 0 28 28"
        fill="none"
        xmlns="http://www.w3.org/2000/svg"
      >
        <mask
          id="mask0_115_769"
          style="mask-type:alpha"
          maskUnits="userSpaceOnUse"
          x="0"
          y="0"
          width="28"
          height="28"
        >
          <path
            d="M14 28C21.732 28 28 21.732 28 14C28 6.26801 21.732 0 14 0C6.26801 0 0 6.26801 0 14C0 21.732 6.26801 28 14 28Z"
            fill="#ECF2FF"
          />
        </mask>
        <g mask="url(#mask0_115_769)">
          <path
            d="M14 28C21.732 28 28 21.732 28 14C28 6.26801 21.732 0 14 0C6.26801 0 0 6.26801 0 14C0 21.732 6.26801 28 14 28Z"
            fill="#ECF2FF"
          />
          <path
            d="M12.5417 9.62504C12.5417 9.30287 12.2805 9.04171 11.9583 9.04171C11.6362 9.04171 11.375 9.30287 11.375 9.62504C11.375 9.94721 11.6362 10.2084 11.9583 10.2084C12.2805 10.2084 12.5417 9.94721 12.5417 9.62504Z"
            fill="#C6D4F2"
          />
          <path
            d="M9.62467 9.62504C9.62467 9.30287 9.36351 9.04171 9.04134 9.04171C8.71918 9.04171 8.45801 9.30287 8.45801 9.62504C8.45801 9.94721 8.71918 10.2084 9.04134 10.2084C9.36351 10.2084 9.62467 9.94721 9.62467 9.62504Z"
            fill="#C6D4F2"
          />
          <path
            d="M6.70817 9.62504C6.70817 9.30287 6.447 9.04171 6.12484 9.04171C5.80267 9.04171 5.5415 9.30287 5.5415 9.62504C5.5415 9.94721 5.80267 10.2084 6.12484 10.2084C6.447 10.2084 6.70817 9.94721 6.70817 9.62504Z"
            fill="#F2BC19"
          />
          <path
            d="M15.4582 9.62504C15.4582 9.30287 15.197 9.04171 14.8748 9.04171C14.5527 9.04171 14.2915 9.30287 14.2915 9.62504C14.2915 9.94721 14.5527 10.2084 14.8748 10.2084C15.197 10.2084 15.4582 9.94721 15.4582 9.62504Z"
            fill="#C6D4F2"
          />
          <path
            d="M12.5417 7.29167C12.5417 6.9695 12.2805 6.70833 11.9583 6.70833C11.6362 6.70833 11.375 6.9695 11.375 7.29167C11.375 7.61383 11.6362 7.875 11.9583 7.875C12.2805 7.875 12.5417 7.61383 12.5417 7.29167Z"
            fill="#C6D4F2"
          />
          <path
            d="M9.62467 7.29167C9.62467 6.9695 9.36351 6.70833 9.04134 6.70833C8.71918 6.70833 8.45801 6.9695 8.45801 7.29167C8.45801 7.61383 8.71918 7.875 9.04134 7.875C9.36351 7.875 9.62467 7.61383 9.62467 7.29167Z"
            fill="#C6D4F2"
          />
          <path
            d="M6.70817 7.29167C6.70817 6.9695 6.447 6.70833 6.12484 6.70833C5.80267 6.70833 5.5415 6.9695 5.5415 7.29167C5.5415 7.61383 5.80267 7.875 6.12484 7.875C6.447 7.875 6.70817 7.61383 6.70817 7.29167Z"
            fill="#C6D4F2"
          />
          <path
            d="M15.4582 7.29167C15.4582 6.9695 15.197 6.70833 14.8748 6.70833C14.5527 6.70833 14.2915 6.9695 14.2915 7.29167C14.2915 7.61383 14.5527 7.875 14.8748 7.875C15.197 7.875 15.4582 7.61383 15.4582 7.29167Z"
            fill="#C6D4F2"
          />
          <path
            d="M12.5417 4.95829C12.5417 4.63613 12.2805 4.37496 11.9583 4.37496C11.6362 4.37496 11.375 4.63613 11.375 4.95829C11.375 5.28046 11.6362 5.54163 11.9583 5.54163C12.2805 5.54163 12.5417 5.28046 12.5417 4.95829Z"
            fill="#C6D4F2"
          />
          <path
            d="M9.62467 4.95829C9.62467 4.63613 9.36351 4.37496 9.04134 4.37496C8.71918 4.37496 8.45801 4.63613 8.45801 4.95829C8.45801 5.28046 8.71918 5.54163 9.04134 5.54163C9.36351 5.54163 9.62467 5.28046 9.62467 4.95829Z"
            fill="#506FFF"
          />
          <path
            d="M6.70817 4.95829C6.70817 4.63613 6.447 4.37496 6.12484 4.37496C5.80267 4.37496 5.5415 4.63613 5.5415 4.95829C5.5415 5.28046 5.80267 5.54163 6.12484 5.54163C6.447 5.54163 6.70817 5.28046 6.70817 4.95829Z"
            fill="#C6D4F2"
          />
          <path
            d="M15.4582 4.95829C15.4582 4.63613 15.197 4.37496 14.8748 4.37496C14.5527 4.37496 14.2915 4.63613 14.2915 4.95829C14.2915 5.28046 14.5527 5.54163 14.8748 5.54163C15.197 5.54163 15.4582 5.28046 15.4582 4.95829Z"
            fill="#C6D4F2"
          />
          <path
            d="M12.5417 2.62504C12.5417 2.30287 12.2805 2.04171 11.9583 2.04171C11.6362 2.04171 11.375 2.30287 11.375 2.62504C11.375 2.94721 11.6362 3.20837 11.9583 3.20837C12.2805 3.20837 12.5417 2.94721 12.5417 2.62504Z"
            fill="#C6D4F2"
          />
          <path
            d="M9.62467 2.62504C9.62467 2.30287 9.36351 2.04171 9.04134 2.04171C8.71918 2.04171 8.45801 2.30287 8.45801 2.62504C8.45801 2.94721 8.71918 3.20837 9.04134 3.20837C9.36351 3.20837 9.62467 2.94721 9.62467 2.62504Z"
            fill="#C6D4F2"
          />
          <path
            d="M6.70817 2.62504C6.70817 2.30287 6.447 2.04171 6.12484 2.04171C5.80267 2.04171 5.5415 2.30287 5.5415 2.62504C5.5415 2.94721 5.80267 3.20837 6.12484 3.20837C6.447 3.20837 6.70817 2.94721 6.70817 2.62504Z"
            fill="#C6D4F2"
          />
          <path
            d="M15.4582 2.62504C15.4582 2.30287 15.197 2.04171 14.8748 2.04171C14.5527 2.04171 14.2915 2.30287 14.2915 2.62504C14.2915 2.94721 14.5527 3.20837 14.8748 3.20837C15.197 3.20837 15.4582 2.94721 15.4582 2.62504Z"
            fill="#48C5A1"
          />
          <path
            d="M13.2773 13.3468C13.007 12.4188 12.0357 11.8858 11.1077 12.1561L1.58683 14.9297C-0.578319 15.5605 -1.8222 17.827 -1.19144 19.9922L-0.212508 23.3525C0.418249 25.5177 2.68478 26.7616 4.84994 26.1308L16.051 22.8677L13.2773 13.3468Z"
            fill="#B7C8EC"
          />
          <path
            d="M2.38894 18.9492L8.22283 17.2497C8.49132 17.1714 8.77239 17.3257 8.85061 17.5942C8.92883 17.8627 8.77458 18.1438 8.50608 18.222L2.6722 19.9215C2.4037 19.9997 2.12263 19.8455 2.04441 19.577C1.96619 19.3085 2.12044 19.0274 2.38894 18.9492Z"
            fill="white"
          />
          <path
            d="M3.21981 20.8168L7.10906 19.6837C7.37756 19.6055 7.65862 19.7598 7.73684 20.0283C7.81506 20.2968 7.66081 20.5778 7.39231 20.6561L3.50306 21.7891C3.23457 21.8673 2.9535 21.713 2.87528 21.4446C2.79706 21.1761 2.95131 20.895 3.21981 20.8168Z"
            fill="#94A8D4"
          />
          <path
            d="M10.3957 13.8825C10.1704 13.1093 10.6147 12.2998 11.388 12.0745C12.1612 11.8492 12.9707 12.2935 13.196 13.0668L19.3493 34.1889C19.5746 34.9622 19.1303 35.7716 18.3571 35.9969C17.5838 36.2222 16.7743 35.7779 16.5491 35.0047L10.3957 13.8825Z"
            fill="#94A8D4"
          />
          <path
            d="M15.5242 6.3469C15.7345 5.40353 16.6697 4.80922 17.613 5.01945L27.2922 7.17652C29.4934 7.66704 30.8801 9.84912 30.3896 12.0503L29.6283 15.4664C29.1378 17.6676 26.9557 19.0543 24.7546 18.5638L13.3672 16.0261L15.5242 6.3469Z"
            fill="#506FFF"
          />
          <path
            d="M26.5663 11.1981L20.6354 9.87638C20.3624 9.81555 20.0918 9.98751 20.031 10.2605C19.9701 10.5334 20.1421 10.804 20.4151 10.8649L26.346 12.1866C26.6189 12.2474 26.8895 12.0755 26.9504 11.8025C27.0112 11.5295 26.8392 11.2589 26.5663 11.1981Z"
            fill="white"
          />
          <path
            d="M24.1484 12.7346L20.1944 11.8534C19.9215 11.7926 19.6509 11.9646 19.5901 12.2375C19.5292 12.5105 19.7012 12.7811 19.9741 12.8419L23.9281 13.7231C24.201 13.7839 24.4716 13.6119 24.5325 13.339C24.5933 13.066 24.4213 12.7954 24.1484 12.7346Z"
            fill="#A7B7FF"
          />
          <path
            d="M18.4344 6.69664C18.6096 5.91051 18.1143 5.1312 17.3282 4.95601C16.5421 4.78082 15.7628 5.27608 15.5876 6.06221L10.8021 27.5356C10.6269 28.3218 11.1222 29.1011 11.9083 29.2763C12.6945 29.4514 13.4738 28.9562 13.649 28.1701L18.4344 6.69664Z"
            fill="#506FFF"
          />
          <path
            d="M10.487 9.59956C10.9706 7.42985 13.1214 6.06293 15.2911 6.54645L22.2553 8.09841C24.425 8.58194 25.792 10.7329 25.3084 12.9026L24.5885 16.1329C24.105 18.3026 21.9541 19.6695 19.7844 19.186L12.8203 17.634C10.6506 17.1505 9.28363 14.9996 9.76716 12.8299L10.487 9.59956Z"
            stroke="white"
            stroke-width="0.2"
          />
        </g>
      </svg>